<svg width="768" height="768" viewBox="0 0 768 768" fill="none" xmlns="http://www.w3.org/2000/svg" role="img" aria-labelledby="title desc">
  <title id="title">CareMap Cameroun Logo</title>
  <desc id="desc">Logo CareMap avec symbole medical et texte Cameroun</desc>

  <defs>
    <linearGradient id="gGreen" x1="0" y1="0" x2="1" y2="1">
      <stop offset="0%" stop-color="#87D11F"/>
      <stop offset="100%" stop-color="#2BAE3A"/>
    </linearGradient>
    <linearGradient id="gBlue" x1="0" y1="0" x2="1" y2="1">
      <stop offset="0%" stop-color="#3CC0F2"/>
      <stop offset="100%" stop-color="#0F5BC7"/>
    </linearGradient>
    <linearGradient id="gHeart" x1="0" y1="0" x2="1" y2="1">
      <stop offset="0%" stop-color="#FF5C6A"/>
      <stop offset="100%" stop-color="#E71E43"/>
    </linearGradient>
    <filter id="shadow" x="0" y="0" width="200%" height="200%">
      <feDropShadow dx="0" dy="8" stdDeviation="8" flood-color="#000" flood-opacity="0.18"/>
    </filter>
  </defs>

  <g transform="translate(130 70)" filter="url(#shadow)">
    <path d="M252 404C252 404 112 240 112 155C112 72 178 8 260 8C342 8 408 72 408 155C408 240 252 404 252 404Z" fill="url(#gBlue)"/>
    <path d="M252 244C252 244 140 215 140 134C140 58 201 0 278 0C357 0 420 64 420 142C420 217 359 244 252 244Z" fill="url(#gGreen)"/>
    <path d="M372 88C390 122 389 161 357 194C330 221 293 239 253 245" stroke="white" stroke-width="16" stroke-linecap="round"/>

    <rect x="236" y="84" width="56" height="28" fill="white"/>
    <rect x="250" y="70" width="28" height="56" fill="white"/>

    <path d="M214 236C214 220 227 207 243 207C252 207 261 211 267 219C273 211 282 207 291 207C307 207 320 220 320 236C320 262 286 284 267 302C248 284 214 262 214 236Z" fill="url(#gHeart)"/>
    <path d="M267 312C236 291 196 267 196 229C196 198 221 173 252 173C258 173 263 174 268 176C273 174 278 173 284 173C315 173 340 198 340 229C340 267 300 291 269 312L267 314L267 312Z" fill="white"/>
  </g>

  <g transform="translate(164 520)">
    <text x="0" y="0" font-family="Segoe UI, Arial, sans-serif" font-size="92" font-weight="700" fill="#2FAA36">Care</text>
    <text x="200" y="0" font-family="Segoe UI, Arial, sans-serif" font-size="92" font-weight="700" fill="#1281D5">Map</text>
    <text x="45" y="64" font-family="Segoe UI, Arial, sans-serif" font-size="56" font-weight="500" letter-spacing="10" fill="#4B4F56">CAMEROUN</text>
  </g>
</svg>
